<mxfile host="www.draw.io" modified="2020-01-15T10:26:39.627Z" agent="Mozilla/5.0 (Windows NT 6.1; Win64; x64) AppleWebKit/537.36 (KHTML, like Gecko) Chrome/78.0.3904.97 Safari/537.36" etag="BTJScXPl8jPrwMtm89Xf" version="12.5.3" type="github">
  <diagram id="MpMfhEeDNTh7M4FPyJLc" name="第 1 页">
    <mxGraphModel dx="2249" dy="745" grid="1" gridSize="10" guides="1" tooltips="1" connect="1" arrows="1" fold="1" page="1" pageScale="1" pageWidth="827" pageHeight="1169" math="0" shadow="0">
      <root>
        <mxCell id="0"/>
        <mxCell id="1" parent="0"/>
        <mxCell id="yV97ogFJOdtofKeOK5qw-80" value="" style="rounded=0;whiteSpace=wrap;html=1;fillColor=#eeeeee;strokeColor=#36393d;" parent="1" vertex="1">
          <mxGeometry x="-30" y="430" width="880" height="190" as="geometry"/>
        </mxCell>
        <mxCell id="yV97ogFJOdtofKeOK5qw-79" value="" style="rounded=0;whiteSpace=wrap;html=1;fillColor=#eeeeee;strokeColor=#36393d;" parent="1" vertex="1">
          <mxGeometry x="-30" y="220" width="880" height="190" as="geometry"/>
        </mxCell>
        <mxCell id="yV97ogFJOdtofKeOK5qw-57" value="客户层" style="rounded=1;whiteSpace=wrap;html=1;fillColor=#ffe6cc;strokeColor=#d79b00;" parent="1" vertex="1">
          <mxGeometry x="30" y="250" width="120" height="60" as="geometry"/>
        </mxCell>
        <mxCell id="yV97ogFJOdtofKeOK5qw-58" value="应用层" style="rounded=1;whiteSpace=wrap;html=1;fillColor=#dae8fc;strokeColor=#6c8ebf;" parent="1" vertex="1">
          <mxGeometry x="180" y="250" width="400" height="60" as="geometry"/>
        </mxCell>
        <mxCell id="yV97ogFJOdtofKeOK5qw-59" value="数据层" style="rounded=1;whiteSpace=wrap;html=1;fillColor=#d5e8d4;strokeColor=#82b366;" parent="1" vertex="1">
          <mxGeometry x="620" y="250" width="200" height="60" as="geometry"/>
        </mxCell>
        <mxCell id="yV97ogFJOdtofKeOK5qw-60" value="控制层" style="rounded=1;whiteSpace=wrap;html=1;fillColor=#dae8fc;strokeColor=#6c8ebf;" parent="1" vertex="1">
          <mxGeometry x="180" y="330" width="120" height="60" as="geometry"/>
        </mxCell>
        <mxCell id="yV97ogFJOdtofKeOK5qw-61" value="业务层" style="rounded=1;whiteSpace=wrap;html=1;fillColor=#dae8fc;strokeColor=#6c8ebf;" parent="1" vertex="1">
          <mxGeometry x="320" y="330" width="120" height="60" as="geometry"/>
        </mxCell>
        <mxCell id="yV97ogFJOdtofKeOK5qw-62" value="基础服务层" style="rounded=1;whiteSpace=wrap;html=1;fillColor=#dae8fc;strokeColor=#6c8ebf;" parent="1" vertex="1">
          <mxGeometry x="460" y="330" width="120" height="60" as="geometry"/>
        </mxCell>
        <mxCell id="yV97ogFJOdtofKeOK5qw-63" value="" style="endArrow=none;dashed=1;html=1;" parent="1" edge="1">
          <mxGeometry width="50" height="50" relative="1" as="geometry">
            <mxPoint x="168" y="890" as="sourcePoint"/>
            <mxPoint x="168" y="225" as="targetPoint"/>
          </mxGeometry>
        </mxCell>
        <mxCell id="yV97ogFJOdtofKeOK5qw-64" value="" style="endArrow=none;dashed=1;html=1;" parent="1" edge="1">
          <mxGeometry width="50" height="50" relative="1" as="geometry">
            <mxPoint x="600" y="880" as="sourcePoint"/>
            <mxPoint x="600" y="223" as="targetPoint"/>
          </mxGeometry>
        </mxCell>
        <mxCell id="yV97ogFJOdtofKeOK5qw-66" value="客户端执行架构" style="rounded=0;whiteSpace=wrap;html=1;fillColor=#b0e3e6;strokeColor=#0e8088;" parent="1" vertex="1">
          <mxGeometry x="30" y="820" width="120" height="60" as="geometry"/>
        </mxCell>
        <mxCell id="yV97ogFJOdtofKeOK5qw-67" value="应用层执行架构" style="rounded=0;whiteSpace=wrap;html=1;fillColor=#b0e3e6;strokeColor=#0e8088;" parent="1" vertex="1">
          <mxGeometry x="180" y="820" width="400" height="60" as="geometry"/>
        </mxCell>
        <mxCell id="yV97ogFJOdtofKeOK5qw-68" value="数据层执行架构" style="rounded=0;whiteSpace=wrap;html=1;fillColor=#b0e3e6;strokeColor=#0e8088;" parent="1" vertex="1">
          <mxGeometry x="620" y="820" width="220" height="60" as="geometry"/>
        </mxCell>
        <mxCell id="yV97ogFJOdtofKeOK5qw-69" value="浏览器/APK终端" style="text;html=1;align=center;verticalAlign=middle;resizable=0;points=[];autosize=1;" parent="1" vertex="1">
          <mxGeometry x="40" y="890" width="100" height="20" as="geometry"/>
        </mxCell>
        <mxCell id="yV97ogFJOdtofKeOK5qw-70" value="业务服务器&lt;br&gt;Linux" style="text;html=1;align=center;verticalAlign=middle;resizable=0;points=[];autosize=1;" parent="1" vertex="1">
          <mxGeometry x="340" y="885" width="80" height="30" as="geometry"/>
        </mxCell>
        <mxCell id="yV97ogFJOdtofKeOK5qw-71" value="数据库服务器&lt;br&gt;Linux" style="text;html=1;align=center;verticalAlign=middle;resizable=0;points=[];autosize=1;" parent="1" vertex="1">
          <mxGeometry x="660" y="885" width="90" height="30" as="geometry"/>
        </mxCell>
        <mxCell id="yV97ogFJOdtofKeOK5qw-72" value="数据访问" style="rounded=1;whiteSpace=wrap;html=1;fillColor=#d5e8d4;strokeColor=#82b366;" parent="1" vertex="1">
          <mxGeometry x="620" y="330" width="90" height="60" as="geometry"/>
        </mxCell>
        <mxCell id="yV97ogFJOdtofKeOK5qw-73" value="数据存储" style="rounded=1;whiteSpace=wrap;html=1;fillColor=#d5e8d4;strokeColor=#82b366;" parent="1" vertex="1">
          <mxGeometry x="730" y="330" width="90" height="60" as="geometry"/>
        </mxCell>
        <mxCell id="yV97ogFJOdtofKeOK5qw-74" value="系统架构" style="rounded=0;whiteSpace=wrap;html=1;horizontal=1;" parent="1" vertex="1">
          <mxGeometry x="-10" y="250" width="20" height="140" as="geometry"/>
        </mxCell>
        <mxCell id="yV97ogFJOdtofKeOK5qw-77" value="实现方式" style="rounded=0;whiteSpace=wrap;html=1;horizontal=1;" parent="1" vertex="1">
          <mxGeometry x="-10" y="460" width="20" height="140" as="geometry"/>
        </mxCell>
        <mxCell id="yV97ogFJOdtofKeOK5qw-84" value="" style="endArrow=none;dashed=1;html=1;" parent="1" edge="1">
          <mxGeometry width="50" height="50" relative="1" as="geometry">
            <mxPoint x="310" y="800" as="sourcePoint"/>
            <mxPoint x="310" y="350" as="targetPoint"/>
          </mxGeometry>
        </mxCell>
        <mxCell id="yV97ogFJOdtofKeOK5qw-85" value="" style="endArrow=none;dashed=1;html=1;" parent="1" edge="1">
          <mxGeometry width="50" height="50" relative="1" as="geometry">
            <mxPoint x="450" y="810" as="sourcePoint"/>
            <mxPoint x="450" y="320" as="targetPoint"/>
          </mxGeometry>
        </mxCell>
        <mxCell id="yV97ogFJOdtofKeOK5qw-86" value="" style="endArrow=none;dashed=1;html=1;" parent="1" edge="1">
          <mxGeometry width="50" height="50" relative="1" as="geometry">
            <mxPoint x="720" y="800" as="sourcePoint"/>
            <mxPoint x="719.5" y="320" as="targetPoint"/>
          </mxGeometry>
        </mxCell>
        <mxCell id="yV97ogFJOdtofKeOK5qw-87" value="&lt;font style=&quot;font-size: 20px&quot;&gt;MySQL&lt;br&gt;Redis&lt;br&gt;FastDFS&lt;/font&gt;" style="text;html=1;align=center;verticalAlign=middle;resizable=0;points=[];autosize=1;" parent="1" vertex="1">
          <mxGeometry x="730" y="490" width="90" height="60" as="geometry"/>
        </mxCell>
        <mxCell id="yV97ogFJOdtofKeOK5qw-88" value="&lt;span style=&quot;font-size: 20px&quot;&gt;Druid&lt;/span&gt;&lt;br&gt;&lt;font style=&quot;font-size: 20px&quot;&gt;MyBatis&lt;br&gt;Lettuce&lt;br&gt;&lt;/font&gt;" style="text;html=1;align=center;verticalAlign=middle;resizable=0;points=[];autosize=1;" parent="1" vertex="1">
          <mxGeometry x="620" y="490" width="90" height="60" as="geometry"/>
        </mxCell>
        <mxCell id="yV97ogFJOdtofKeOK5qw-89" value="缓存服务" style="rounded=1;whiteSpace=wrap;html=1;" parent="1" vertex="1">
          <mxGeometry x="470" y="630" width="120" height="30" as="geometry"/>
        </mxCell>
        <mxCell id="yV97ogFJOdtofKeOK5qw-90" value="日志服务" style="rounded=1;whiteSpace=wrap;html=1;" parent="1" vertex="1">
          <mxGeometry x="470" y="670" width="120" height="30" as="geometry"/>
        </mxCell>
        <mxCell id="yV97ogFJOdtofKeOK5qw-91" value="认证服务" style="rounded=1;whiteSpace=wrap;html=1;" parent="1" vertex="1">
          <mxGeometry x="470" y="710" width="120" height="30" as="geometry"/>
        </mxCell>
        <mxCell id="yV97ogFJOdtofKeOK5qw-92" value="基础工具包" style="rounded=1;whiteSpace=wrap;html=1;" parent="1" vertex="1">
          <mxGeometry x="470" y="750" width="120" height="30" as="geometry"/>
        </mxCell>
        <mxCell id="yV97ogFJOdtofKeOK5qw-93" value="..." style="rounded=1;whiteSpace=wrap;html=1;fontSize=20;" parent="1" vertex="1">
          <mxGeometry x="470" y="790" width="120" height="20" as="geometry"/>
        </mxCell>
        <mxCell id="yV97ogFJOdtofKeOK5qw-94" value="&lt;font style=&quot;font-size: 20px&quot;&gt;SpringBoot&lt;br&gt;Redis&lt;br&gt;Swagger&lt;br&gt;&amp;nbsp;Lombok&lt;br&gt;Guava&lt;br&gt;Slf4j&lt;br&gt;&lt;br&gt;&lt;/font&gt;" style="text;html=1;align=center;verticalAlign=middle;resizable=0;points=[];autosize=1;" parent="1" vertex="1">
          <mxGeometry x="475" y="470" width="110" height="120" as="geometry"/>
        </mxCell>
        <mxCell id="yV97ogFJOdtofKeOK5qw-95" value="&lt;font style=&quot;font-size: 20px&quot;&gt;SpringBoot&lt;br&gt;Redis&lt;br&gt;MQ&lt;br&gt;Poi&lt;br&gt;&lt;br&gt;&lt;/font&gt;" style="text;html=1;align=center;verticalAlign=middle;resizable=0;points=[];autosize=1;" parent="1" vertex="1">
          <mxGeometry x="330" y="480" width="110" height="90" as="geometry"/>
        </mxCell>
        <mxCell id="yV97ogFJOdtofKeOK5qw-96" value="&lt;font style=&quot;font-size: 20px&quot;&gt;&lt;br&gt;Redis&lt;br&gt;SpringSecurity&lt;br&gt;Hystrix&lt;br&gt;&lt;br&gt;&lt;/font&gt;" style="text;html=1;align=center;verticalAlign=middle;resizable=0;points=[];autosize=1;" parent="1" vertex="1">
          <mxGeometry x="165" y="480" width="150" height="90" as="geometry"/>
        </mxCell>
        <mxCell id="yV97ogFJOdtofKeOK5qw-99" value="设备管理" style="rounded=1;whiteSpace=wrap;html=1;" parent="1" vertex="1">
          <mxGeometry x="320" y="630" width="120" height="30" as="geometry"/>
        </mxCell>
        <mxCell id="yV97ogFJOdtofKeOK5qw-100" value="账号管理" style="rounded=1;whiteSpace=wrap;html=1;" parent="1" vertex="1">
          <mxGeometry x="320" y="670" width="120" height="30" as="geometry"/>
        </mxCell>
        <mxCell id="yV97ogFJOdtofKeOK5qw-101" value="权限管理" style="rounded=1;whiteSpace=wrap;html=1;" parent="1" vertex="1">
          <mxGeometry x="320" y="710" width="120" height="30" as="geometry"/>
        </mxCell>
        <mxCell id="yV97ogFJOdtofKeOK5qw-102" value="群组管理" style="rounded=1;whiteSpace=wrap;html=1;" parent="1" vertex="1">
          <mxGeometry x="320" y="750" width="120" height="30" as="geometry"/>
        </mxCell>
        <mxCell id="yV97ogFJOdtofKeOK5qw-103" value="..." style="rounded=1;whiteSpace=wrap;html=1;fontSize=20;" parent="1" vertex="1">
          <mxGeometry x="320" y="790" width="120" height="20" as="geometry"/>
        </mxCell>
        <mxCell id="yV97ogFJOdtofKeOK5qw-105" value="Master" style="shape=datastore;whiteSpace=wrap;html=1;fontSize=20;" parent="1" vertex="1">
          <mxGeometry x="750" y="650" width="60" height="60" as="geometry"/>
        </mxCell>
        <mxCell id="yV97ogFJOdtofKeOK5qw-106" value="Slave" style="shape=datastore;whiteSpace=wrap;html=1;fontSize=20;" parent="1" vertex="1">
          <mxGeometry x="750" y="730" width="60" height="60" as="geometry"/>
        </mxCell>
        <mxCell id="yV97ogFJOdtofKeOK5qw-107" value="&lt;font style=&quot;font-size: 15px&quot;&gt;数据访问DAO&lt;/font&gt;" style="rounded=1;whiteSpace=wrap;html=1;fontSize=20;" parent="1" vertex="1">
          <mxGeometry x="620" y="690" width="80" height="70" as="geometry"/>
        </mxCell>
        <mxCell id="yV97ogFJOdtofKeOK5qw-108" value="Servlet" style="rounded=1;whiteSpace=wrap;html=1;" parent="1" vertex="1">
          <mxGeometry x="180" y="650" width="120" height="30" as="geometry"/>
        </mxCell>
        <mxCell id="yV97ogFJOdtofKeOK5qw-109" value="分布式Session" style="rounded=1;whiteSpace=wrap;html=1;" parent="1" vertex="1">
          <mxGeometry x="180" y="700" width="120" height="30" as="geometry"/>
        </mxCell>
        <mxCell id="yV97ogFJOdtofKeOK5qw-110" value="全局异常处理" style="rounded=1;whiteSpace=wrap;html=1;" parent="1" vertex="1">
          <mxGeometry x="180" y="750" width="120" height="30" as="geometry"/>
        </mxCell>
        <mxCell id="yV97ogFJOdtofKeOK5qw-111" value="" style="endArrow=classic;startArrow=classic;html=1;fontSize=20;" parent="1" edge="1">
          <mxGeometry width="50" height="50" relative="1" as="geometry">
            <mxPoint x="10" y="715" as="sourcePoint"/>
            <mxPoint x="180" y="714.5" as="targetPoint"/>
          </mxGeometry>
        </mxCell>
        <mxCell id="yV97ogFJOdtofKeOK5qw-112" value="HTTP/HTTPS" style="text;html=1;align=center;verticalAlign=middle;resizable=0;points=[];autosize=1;fontSize=20;" parent="1" vertex="1">
          <mxGeometry x="20" y="700" width="140" height="30" as="geometry"/>
        </mxCell>
        <mxCell id="nb5bj309W3k9I99eFuIN-1" value="web&lt;br&gt;/&lt;br&gt;apk&lt;br&gt;client" style="rounded=0;whiteSpace=wrap;html=1;horizontal=1;" vertex="1" parent="1">
          <mxGeometry x="-10" y="645" width="20" height="140" as="geometry"/>
        </mxCell>
      </root>
    </mxGraphModel>
  </diagram>
</mxfile>
